# xmcd CD database file
#
# Track frame offsets:
#	150
#	15692
#	36030
#	55977
#	80282
#	102942
#	119762
#	141020
#	164620
#	188867
#	210155
#	226452
#	250142
#
# Disc length: 3749 seconds
#
# Revision: 13
# Processed by: cddbd v1.5.2PL0 Copyright (c) Steve Scherf et al.
# Submitted via: CDex 1.99.1
#
DISCID=ac0ea30d
DTITLE=The Rolling Stones - Bridges to Babylon
DYEAR=1997
DGENRE=Rock
TTITLE0=Flip The Switch
TTITLE1=Anybody Seen My Baby?
TTITLE2=Low Down
TTITLE3=Already Over Me
TTITLE4=Gunface
TTITLE5=You Don't Have To Mean It
TTITLE6=Out Of Control
TTITLE7=Saint Of Me
TTITLE8=Might As Well Get Juiced
TTITLE9=Always Suffering
TTITLE10=Too Tight
TTITLE11=Thief In The Night
TTITLE12=How Can I Stop
EXTD=YEAR: 1997
EXTT0=
EXTT1=
EXTT2=
EXTT3=
EXTT4=
EXTT5=
EXTT6=
EXTT7=
EXTT8=
EXTT9=
EXTT10=
EXTT11=
EXTT12=
PLAYORDER=
